<svg width="18" height="18" viewBox="0 0 18 18" fill="none" xmlns="http://www.w3.org/2000/svg">
  <path
    d="M8.01 0.0500082C3.51 0.540008 0 4.36001 0 9.00001C0 11.387 0.948211 13.6761 2.63604 15.364C4.32387 17.0518 6.61305 18 9 18C13.63 18 17.45 14.5 17.95 10C18.04 9.21001 17.17 8.58001 16.41 9.05001C15.5937 9.57107 14.6523 9.86314 13.6844 9.89565C12.7165 9.92816 11.7576 9.69993 10.9082 9.23482C10.0587 8.76971 9.34988 8.08484 8.85586 7.25187C8.36183 6.4189 8.10077 5.46846 8.1 4.50001C8.1 3.44001 8.41 2.44001 8.94 1.61001C9.39 0.940008 8.9 -0.0199918 8.01 0.0500082V0.0500082Z"
    fill="#000000" />
</svg>