<svg xmlns="http://www.w3.org/2000/svg" viewBox="0 0 210.16 35.9"><defs><style>.cls-1{fill:#ffef1d;}</style></defs><g id="Capa_2" data-name="Capa 2"><g id="Capa_1-2" data-name="Capa 1"><path class="cls-1" d="M98.57,33.4a1.74,1.74,0,0,0,1.54.83C99.64,33.56,99.17,33.29,98.57,33.4Z"/><polygon class="cls-1" points="100.12 34.25 100.13 34.24 100.11 34.23 100.12 34.25"/><path class="cls-1" d="M209.77,1.15l-.47,0A.76.76,0,0,0,209.77,1.15Z"/><path class="cls-1" d="M127.23,35.22l0-1.2c1.32-.06.42,1.36,1.64,1,.43-1.71,2,.12,2.43-.79,0,.13.6.17.57.7.16-.93.61-.23,1-.48.13-.25-.11-.27-.22-.54l.86-.35c.34.29.44.83.07.94,2.28.26,13.15.95,15.58.48-.32-.7-1.07-.22-1.37-1.31.64-.62.95.21,1.23-.44.26,1.62,1.42.37,1.92,2l.18-.93.32.56c2.83-1,.65-.47,3.16-.27,1.45-.16,2.14-1.43,3-1-.12,0-.44-.58-.07-.81.07.81,1-.59,1.19.23.37-.1,1.57,0,1.16-1.11.21.55,1.27.78.64,1.26.36,0,.71.19,1,0l-.46-.31c1.21-.16,1.87.7,2.67-.3l-.45-.45c.73-.06,1.34-.15,1.62,1l-.75.33a5.24,5.24,0,0,0,2.94-.67l-.36,0c1.29-1.09,8-1.95,9.2-3.3l-.53-.85,1-.71c-.13,0-.53,2.76-.63,2.48,2.18-.08,13.54-.52,15.54.11.8.49.11,1.35.1,1.49,1-.29.45-.89,1.28-.79.23.16-.06.66-.19.78.37-.09.7.22.74-.18-.45-.32-.23-1.37-.41-2.06l1.08.13-.07.66c.24,0,.66-1.8,1.72-1.41,1.78.35,3.74.18,5.54.39-.05.4-.43.62-.82.84.24,0,.61-.06.83.23-.42-.72.77-.44.44-.75,1.37-1.58,3,0,4.24-1.11.14-1.46,3.45-25,3.53-26.77.37.05.74.09.85.24-.08-.41-.8-.63-1.2-.41l-.1.93c-.9.3-.19-.56-1.06-.53,0-.76.79-.9,1.5-.95-.63-.11-1.25-.68-1.53.14-.59-.33.1-.93-.61-1.28-.52.21-1.22.94-1.79.47V.37c-1.4-.83-2.22,1.09-3.5.27L202,.39c-.45-.46-1.38.11-2.2-.39.24.16.43.72-.08.79-.94-.51-1.61-.05-2.29-.66l-.69.72c-3.33-.3-16.52.52-19.86.61l.13-.11c-5.1.29-15.56.19-20.82,1.26-.82-.73-1.94-.55-2.79-.75.47.31.31.83-.06.8-2.58-.06-.17.51-2.78.85-3,.7-14.53.1-17.22-.44-1.41,1.12-3.22.35-4.61,1.07l.13-.26c-1.49.44-10.08-.29-11.82.17l.24.15c-1.5.73-1.34-.46-2.56-.79.21,1.21-1.08,2-1.57,2.07V5.21c-.75.24-2.41,1.36-3.64,1.58V6.12c-1,.76-3,.55-3.7.66-1.72-.2-4.41-1.23-6.64-.23L97.65,4.73l-.21.2s-.29,5.75-.16,12.08S98,30.27,99.54,32.63v.67l.58-.12c.72.29,1-.5,1,.17l-1,0c.72.15.24.53,0,.92a1.74,1.74,0,0,1,.82.3c.13-.26-.11-.27-.23-.4.37-.26.86-.91,1.34-.63.72,0,.1,1.08.94,1.11,4.44.29,8.74.87,13.2.54.11.27,0,.27-.13.4,1.33-.34,2.53-.28,3.74-.62a2.09,2.09,0,0,1,.57,1C120.15,35.35,127.11,35.07,127.23,35.22Z"/><path d="M8.25,10.6c-1.65-.14-2.48.48-2.48,1.87H8.25V16.3H5.77v9.47h-4V16.3H0V12.47H1.78A5.65,5.65,0,0,1,3.41,8.09,6.35,6.35,0,0,1,8.25,6.77Z"/><path d="M19,12.47h4v13.3H19V24.52a5,5,0,0,1-4,1.62,5.89,5.89,0,0,1-4.49-2,7.13,7.13,0,0,1-1.86-5,7.13,7.13,0,0,1,1.86-5,5.87,5.87,0,0,1,4.49-2,5,5,0,0,1,4,1.63Zm-5.45,9a3.08,3.08,0,0,0,2.28.87,3.11,3.11,0,0,0,2.29-.87A3.2,3.2,0,0,0,19,19.12a3.2,3.2,0,0,0-.88-2.37,3.11,3.11,0,0,0-2.29-.88,3.09,3.09,0,0,0-2.28.88,3.2,3.2,0,0,0-.88,2.37A3.2,3.2,0,0,0,13.52,21.49Z"/><path d="M32.27,26.14a6.89,6.89,0,0,1-7.05-7,6.9,6.9,0,0,1,7.05-7A6.86,6.86,0,0,1,35.8,13a6.54,6.54,0,0,1,2.48,2.47l-3.48,2A2.62,2.62,0,0,0,32.22,16a2.9,2.9,0,0,0-2.16.87,3,3,0,0,0-.85,2.22,3.07,3.07,0,0,0,.85,2.22,2.89,2.89,0,0,0,2.16.86,2.57,2.57,0,0,0,2.58-1.49l3.48,2a6.52,6.52,0,0,1-2.47,2.5A6.88,6.88,0,0,1,32.27,26.14Z"/><path d="M47.68,16.3H44.94V21a.94.94,0,0,0,.63,1,6.47,6.47,0,0,0,2.11.13v3.62c-2.54.27-4.3,0-5.27-.73s-1.47-2.1-1.47-4V16.3H38.82V12.47h2.12V9.94l4-1.2v3.73h2.74Z"/><path d="M58.8,12.47h4v13.3h-4V24.52A4.43,4.43,0,0,1,55,26.14a4.77,4.77,0,0,1-3.55-1.46A5.56,5.56,0,0,1,50,20.63V12.47h4v7.58a2.37,2.37,0,0,0,.65,1.8,2.32,2.32,0,0,0,1.66.62,2.4,2.4,0,0,0,1.81-.69,2.87,2.87,0,0,0,.67-2.05Z"/><path d="M69.7,14.84a3.24,3.24,0,0,1,1.51-2,4.75,4.75,0,0,1,2.49-.68v4.52a4,4,0,0,0-2.73.5,2.68,2.68,0,0,0-1.27,2.54v6h-4V12.47h4Z"/><path d="M84.82,12.47h4v13.3h-4V24.52a5,5,0,0,1-4,1.62,5.89,5.89,0,0,1-4.49-2,7.09,7.09,0,0,1-1.87-5,7.09,7.09,0,0,1,1.87-5,5.87,5.87,0,0,1,4.49-2,5,5,0,0,1,4,1.63Zm-5.46,9a3.45,3.45,0,0,0,4.58,0,3.24,3.24,0,0,0,.88-2.37,3.24,3.24,0,0,0-.88-2.37,3.42,3.42,0,0,0-4.58,0,3.24,3.24,0,0,0-.88,2.37A3.24,3.24,0,0,0,79.36,21.49Z"/><path d="M95.38,16.35c0,.27.22.49.68.65a17,17,0,0,0,1.63.51,14.48,14.48,0,0,1,1.92.65,4,4,0,0,1,1.64,1.32,3.77,3.77,0,0,1,.67,2.3A3.71,3.71,0,0,1,100.33,25a6.82,6.82,0,0,1-3.94,1.1q-4.2,0-5.72-3.16l3.46-2a2.17,2.17,0,0,0,2.26,1.57c1,0,1.44-.28,1.44-.83,0-.26-.23-.49-.68-.66a14.66,14.66,0,0,0-1.64-.52,12.77,12.77,0,0,1-1.91-.67A4,4,0,0,1,92,18.61a3.41,3.41,0,0,1-.68-2.15,3.8,3.8,0,0,1,1.5-3.22,6,6,0,0,1,3.72-1.15,6.17,6.17,0,0,1,3,.74,5.52,5.52,0,0,1,2.18,2.11l-3.4,1.84a2,2,0,0,0-1.78-1.17C95.75,15.61,95.38,15.86,95.38,16.35Z"/><path d="M116.78,9.94l.8,2.47a8.44,8.44,0,0,1-1.84.38c-.67.06-1.42.09-2.24.09a4.61,4.61,0,0,1,1.9,1.43,3.54,3.54,0,0,1,.64,2.13,4.59,4.59,0,0,1-.67,2.45,4.54,4.54,0,0,1-1.9,1.69,6.61,6.61,0,0,1-3,.61,8,8,0,0,1-1-.05,5.26,5.26,0,0,1-.88-.17,1.54,1.54,0,0,0-.44.5,1.25,1.25,0,0,0-.18.65,1,1,0,0,0,.35.74,2.2,2.2,0,0,0,1.4.32h2.45a6.54,6.54,0,0,1,2.66.51,4.48,4.48,0,0,1,1.81,1.39,3.33,3.33,0,0,1,.65,2,3.67,3.67,0,0,1-1.81,3.26,9.7,9.7,0,0,1-5.21,1.15,11.58,11.58,0,0,1-3.78-.49,3.53,3.53,0,0,1-1.93-1.46,4.73,4.73,0,0,1-.56-2.38h2.68a2.36,2.36,0,0,0,.28,1.21,1.82,1.82,0,0,0,1.08.72,8.18,8.18,0,0,0,2.26.23,9.13,9.13,0,0,0,2.34-.24,2.51,2.51,0,0,0,1.27-.71,1.62,1.62,0,0,0,.39-1.09,1.48,1.48,0,0,0-.74-1.32,3.77,3.77,0,0,0-2-.47h-2.41a4.37,4.37,0,0,1-2.92-.81,2.46,2.46,0,0,1-.92-1.89,2.59,2.59,0,0,1,.4-1.38,3.7,3.7,0,0,1,1.17-1.16A4.53,4.53,0,0,1,105,18.65a4.35,4.35,0,0,1-.58-2.31,4.64,4.64,0,0,1,.74-2.61A5,5,0,0,1,107.25,12a7,7,0,0,1,3-.63,18.34,18.34,0,0,0,2.82-.18,9.49,9.49,0,0,0,2-.51C115.66,10.45,116.22,10.21,116.78,9.94Zm-6.45,3.47a2.71,2.71,0,0,0-2.14.81,3,3,0,0,0-.72,2.09,3.06,3.06,0,0,0,.74,2.14,2.8,2.8,0,0,0,2.16.8,2.61,2.61,0,0,0,2-.77,3.19,3.19,0,0,0,.69-2.2,3,3,0,0,0-.69-2.15A2.73,2.73,0,0,0,110.33,13.41Z"/><path d="M121.05,25.77V23.64h2.06v-9.8h-2.06V11.72h4.34l.54,3.26a7,7,0,0,1,1.95-2.69,4.67,4.67,0,0,1,3-.93,6.42,6.42,0,0,1,1.13.1c.33.07.66.16,1,.26l-.89,2.56a7.4,7.4,0,0,0-.8-.18,5.31,5.31,0,0,0-.83-.06,3.56,3.56,0,0,0-2.64,1.14,7.93,7.93,0,0,0-1.75,3.25v5.21h2.84v2.13Zm9.31-8.87V13.44l.38-1.72H133l-.51,5.18Z"/><path d="M147.62,22.32a2.23,2.23,0,0,0,.25,1.21,1.5,1.5,0,0,0,.81.56l-.66,2a4.4,4.4,0,0,1-1.79-.58,2.83,2.83,0,0,1-1.13-1.37,4.77,4.77,0,0,1-1.95,1.47,6.67,6.67,0,0,1-2.53.49,4.61,4.61,0,0,1-3.37-1.21A4.18,4.18,0,0,1,136,21.77a3.91,3.91,0,0,1,1.73-3.42,8.66,8.66,0,0,1,5-1.2h2v-.92a2.25,2.25,0,0,0-.82-2,3.83,3.83,0,0,0-2.31-.6,9.45,9.45,0,0,0-1.67.18,13.46,13.46,0,0,0-2.06.55l-.74-2.1a15.55,15.55,0,0,1,2.59-.73,13.4,13.4,0,0,1,2.34-.23,6.16,6.16,0,0,1,4.21,1.25,4.44,4.44,0,0,1,1.39,3.46Zm-6.1,1.61a3.76,3.76,0,0,0,3.17-1.82V19H143a5,5,0,0,0-3,.7,2.31,2.31,0,0,0-.9,1.92,2.28,2.28,0,0,0,.6,1.71A2.45,2.45,0,0,0,141.52,23.93Z"/><path d="M164.58,25a6.84,6.84,0,0,1-1.85.8,8,8,0,0,1-2.25.31,5,5,0,0,1-3.72-1.27,4.56,4.56,0,0,1-1.27-3.35V13.89h-3.12V11.72h3.12V8.58l3-.36v3.5h4.74l-.34,2.17h-4.4v7.6a2.25,2.25,0,0,0,.57,1.68,2.56,2.56,0,0,0,1.85.55,5,5,0,0,0,1.43-.19,5.7,5.7,0,0,0,1.18-.47Z"/><path d="M176.48,11.72V23.59h3.82v2.18h-11V23.59h4.2V13.9h-4.07V11.72Zm-2.07-6.88a1.89,1.89,0,0,1,1.41.54,1.77,1.77,0,0,1,.54,1.33,1.82,1.82,0,0,1-.54,1.34,2.07,2.07,0,0,1-2.81,0,1.82,1.82,0,0,1-.54-1.34A1.77,1.77,0,0,1,173,5.38,1.9,1.9,0,0,1,174.41,4.84Z"/><path d="M189.88,23.84a4.29,4.29,0,0,0,2.22-.5,1.53,1.53,0,0,0,.82-1.38,2,2,0,0,0-.23-1,2.17,2.17,0,0,0-1-.75,13.9,13.9,0,0,0-2.18-.71,13.44,13.44,0,0,1-2.43-.85,4.06,4.06,0,0,1-1.62-1.28,3.33,3.33,0,0,1-.57-2,3.42,3.42,0,0,1,.68-2.11,4.26,4.26,0,0,1,1.95-1.41,7.94,7.94,0,0,1,3-.51,9.29,9.29,0,0,1,3.09.47A8.48,8.48,0,0,1,195.88,13l-1.25,1.88a8,8,0,0,0-1.8-.89,6.65,6.65,0,0,0-2.21-.35,3.64,3.64,0,0,0-2,.43,1.31,1.31,0,0,0-.62,1.13,1.28,1.28,0,0,0,.32.87,2.83,2.83,0,0,0,1.08.65c.51.2,1.24.43,2.18.7a13.18,13.18,0,0,1,2.39.88,3.93,3.93,0,0,1,1.58,1.33,3.78,3.78,0,0,1,.57,2.17,3.57,3.57,0,0,1-.87,2.48,5.29,5.29,0,0,1-2.29,1.42,9.72,9.72,0,0,1-3,.46,9.06,9.06,0,0,1-3.38-.57,8.22,8.22,0,0,1-2.4-1.41l1.59-1.81a7.27,7.27,0,0,0,1.89,1.08A6.19,6.19,0,0,0,189.88,23.84Z"/></g></g></svg>