<svg width="46" height="48" viewBox="0 0 46 48" fill="none" xmlns="http://www.w3.org/2000/svg">
  <path
    d="M44.5053 13.9492C44.1089 13.9492 43.7287 14.1054 43.4484 14.3833C43.1681 14.6613 43.0107 15.0383 43.0107 15.4313V24.5373C43.0107 26.5939 42.1868 28.5662 40.7202 30.0204C39.2536 31.4746 37.2646 32.2916 35.1905 32.2916C33.1165 32.2916 31.1274 31.4746 29.6609 30.0204C28.1943 28.5662 27.3704 26.5939 27.3704 24.5373V22.0978C29.0124 22.4681 30.719 22.4527 32.3539 22.0529C33.9889 21.653 35.5069 20.8796 36.7868 19.7946C36.936 19.6681 37.0586 19.5137 37.1476 19.3402C37.2366 19.1667 37.2903 18.9775 37.3055 18.7835C37.3208 18.5894 37.2974 18.3943 37.2366 18.2092C37.1758 18.0242 37.0788 17.8528 36.9513 17.7049C36.8237 17.5569 36.668 17.4354 36.493 17.3471C36.318 17.2589 36.1273 17.2057 35.9316 17.1905C35.7359 17.1754 35.5391 17.1986 35.3524 17.2589C35.1658 17.3192 34.9929 17.4153 34.8438 17.5418C33.8286 18.3997 32.6092 18.9861 31.3012 19.2455C29.9933 19.5048 28.6403 19.4286 27.3704 19.0239V15.4313C27.3704 15.0383 27.2129 14.6613 26.9326 14.3833C26.6523 14.1054 26.2722 13.9492 25.8757 13.9492C25.4793 13.9492 25.0992 14.1054 24.8189 14.3833C24.5385 14.6613 24.3811 15.0383 24.3811 15.4313V17.2662C23.1987 16.1537 22.396 14.7029 22.0853 13.1163H39.0767C39.4731 13.1163 39.8533 12.9602 40.1336 12.6822C40.4139 12.4043 40.5714 12.0273 40.5714 11.6342C40.5706 9.71509 40.0499 7.8314 39.0635 6.1802C38.0771 4.52899 36.6614 3.17094 34.9644 2.2481C33.2675 1.32525 31.3516 0.871525 29.4172 0.934371C27.4828 0.997217 25.601 1.57433 23.9685 2.60534L24.1838 2.13997C24.2725 1.96237 24.3244 1.76894 24.3364 1.57112C24.3484 1.37329 24.3203 1.17508 24.2537 0.988224C24.1871 0.801366 24.0834 0.62965 23.9487 0.483235C23.814 0.33682 23.651 0.218681 23.4695 0.135806C23.2879 0.0529304 23.0914 0.00700295 22.8917 0.000740223C22.6919 -0.00552251 22.4929 0.0280067 22.3064 0.0993442C22.1199 0.170682 21.9498 0.278379 21.806 0.416064C21.6623 0.553749 21.5478 0.718625 21.4695 0.900939L14.3728 16.2198L7.27606 0.900939C7.19769 0.718625 7.08324 0.553749 6.93948 0.416064C6.79572 0.278379 6.62557 0.170682 6.4391 0.0993442C6.25263 0.0280067 6.05362 -0.00552251 5.85386 0.000740223C5.65409 0.00700295 5.45761 0.0529304 5.27606 0.135806C5.09451 0.218681 4.93156 0.33682 4.79686 0.483235C4.66216 0.62965 4.55844 0.801366 4.49184 0.988224C4.42524 1.17508 4.39711 1.37329 4.40911 1.57112C4.42112 1.76894 4.47302 1.96237 4.56174 2.13997L11.7362 17.6485C11.4372 17.6248 11.1144 17.607 10.8005 17.607C9.33874 17.6084 7.89251 17.9044 6.54972 18.4772C5.20692 19.0499 3.99559 19.8874 2.98934 20.9388V18.9291C2.98934 18.536 2.83187 18.159 2.55156 17.8811C2.27126 17.6031 1.89108 17.447 1.49467 17.447C1.09826 17.447 0.718084 17.6031 0.437779 17.8811C0.157474 18.159 0 18.536 0 18.9291L0 37.722C0 38.115 0.157474 38.492 0.437779 38.7699C0.718084 39.0479 1.09826 39.204 1.49467 39.204C1.89108 39.204 2.27126 39.0479 2.55156 38.7699C2.83187 38.492 2.98934 38.115 2.98934 37.722V28.3255C2.99039 27.0515 3.30777 25.7973 3.91346 24.6737C4.51915 23.5501 5.39451 22.5916 6.46226 21.8829C7.53002 21.1743 8.75731 20.7372 10.0358 20.6102C11.3143 20.4833 12.6046 20.6705 13.7928 21.1552C14.0791 21.2715 14.3947 21.297 14.6961 21.228C14.9976 21.1589 15.27 20.9989 15.4758 20.7698V20.7698L15.4968 20.7431C15.5382 20.6948 15.5771 20.6443 15.6133 20.592L15.6283 20.5653L15.6612 20.506C15.6821 20.4704 15.703 20.4349 15.721 20.3963L19.066 13.1904C19.3039 14.7959 19.9057 16.3269 20.8263 17.6685C21.7469 19.01 22.9623 20.1271 24.3811 20.9358V28.9391C22.6475 27.1385 20.3356 25.9928 17.8426 25.6989C15.3497 25.4049 12.8313 25.9811 10.7202 27.3283C8.6091 28.6755 7.03709 30.7098 6.27426 33.0814C5.51143 35.4531 5.6054 38.0142 6.54004 40.3247C7.47468 42.6351 9.19163 44.5506 11.3959 45.7422C13.6001 46.9337 16.1541 47.3268 18.6189 46.854C21.0837 46.3812 23.3055 45.0719 24.9026 43.1512C26.4996 41.2305 27.3722 38.8182 27.3704 36.3288V31.924C28.3776 32.9767 29.5903 33.8149 30.9348 34.3878C32.2792 34.9607 33.7272 35.2561 35.1905 35.2561C36.6539 35.2561 38.1019 34.9607 39.4463 34.3878C40.7908 33.8149 42.0035 32.9767 43.0107 31.924V33.7737C43.0107 34.1667 43.1681 34.5437 43.4484 34.8217C43.7287 35.0996 44.1089 35.2558 44.5053 35.2558C44.9017 35.2558 45.2819 35.0996 45.5622 34.8217C45.8425 34.5437 46 34.1667 46 33.7737V15.4313C46 15.0383 45.8425 14.6613 45.5622 14.3833C45.2819 14.1054 44.9017 13.9492 44.5053 13.9492V13.9492ZM29.7619 3.89179C31.576 3.8939 33.3332 4.52042 34.7333 5.66436C36.1334 6.8083 37.0895 8.39871 37.4385 10.164H22.0853C22.4353 8.39922 23.3918 6.80946 24.7916 5.66571C26.1915 4.52196 27.948 3.89503 29.7619 3.89179ZM16.561 44.0742C15.0143 44.0742 13.5023 43.6194 12.2163 42.7674C10.9303 41.9153 9.92799 40.7042 9.33611 39.2873C8.74422 37.8704 8.58936 36.3113 8.8911 34.8071C9.19284 33.3029 9.93763 31.9212 11.0313 30.8368C12.125 29.7523 13.5184 29.0138 15.0353 28.7146C16.5523 28.4154 18.1246 28.569 19.5536 29.1559C20.9825 29.7428 22.2039 30.7367 23.0631 32.0118C23.9224 33.287 24.3811 34.7862 24.3811 36.3199C24.3787 38.3757 23.554 40.3467 22.088 41.8004C20.622 43.2541 18.6343 44.0718 16.561 44.0742V44.0742Z"
    fill="url(#paint0_linear_139_250)" />
  <defs>
    <linearGradient id="paint0_linear_139_250" x1="9.49116" y1="44.6463" x2="34.0603" y2="1.73184"
      gradientUnits="userSpaceOnUse">
      <stop stop-color="#00FEFE" />
      <stop offset="0.5" stop-color="#7D6BFF" />
      <stop offset="0.6" stop-color="#9271FF" />
      <stop offset="0.81" stop-color="#C780FE" />
      <stop offset="1" stop-color="#FA8EFD" />
    </linearGradient>
  </defs>
</svg>